<svg width="14" height="14" viewBox="0 0 14 14" fill="none" xmlns="http://www.w3.org/2000/svg">
<path d="M8.81779 9.70025C8.77937 9.21015 8.76855 8.7185 8.78538 8.22733L8.78475 8.24892C9.25373 7.7938 9.54628 7.2048 9.61573 6.57592L9.61697 6.56367C9.8283 6.54733 10.1618 6.35483 10.2591 5.59183C10.2882 5.46043 10.277 5.324 10.2268 5.19828C10.1766 5.07256 10.0895 4.96269 9.97542 4.88133L9.97355 4.88017C10.3177 3.91183 11.0321 0.915833 8.65135 0.606667C8.40636 0.204167 7.77923 0 6.96384 0C3.70166 0.056 3.30831 2.30475 4.02146 4.88017C3.90619 4.96203 3.81828 5.07297 3.76804 5.19996C3.71779 5.32695 3.70731 5.46472 3.73782 5.59708L3.7372 5.59242C3.83694 6.35425 4.16796 6.54792 4.37929 6.56425C4.45351 7.20015 4.75537 7.79387 5.23582 8.24892C5.25123 8.74869 5.23916 9.24888 5.19966 9.7475L5.20278 9.70025C4.5557 11.3242 0.199483 10.8681 0 14H14C13.7993 10.8681 9.463 11.3242 8.81717 9.70025H8.81779Z" fill="white"/>
</svg>
